<svg width="1324" height="249" viewBox="0 0 1324 249" fill="none" xmlns="http://www.w3.org/2000/svg">
<path d="M61.377 137L22.998 53.4307V119.788C22.998 125.892 23.6572 129.7 24.9756 131.214C26.7822 133.265 29.6387 134.29 33.5449 134.29H37.0605V137H2.49023V134.29H6.00586C10.2051 134.29 13.1836 133.021 14.9414 130.481C16.0156 128.919 16.5527 125.354 16.5527 119.788V54.8955C16.5527 50.501 16.0645 47.3271 15.0879 45.374C14.4043 43.958 13.1348 42.7861 11.2793 41.8584C9.47266 40.8818 6.54297 40.3936 2.49023 40.3936V37.6836H30.6152L66.6504 115.394L102.1 37.6836H130.225V40.3936H126.782C122.534 40.3936 119.531 41.6631 117.773 44.2021C116.699 45.7646 116.162 49.3291 116.162 54.8955V119.788C116.162 125.892 116.846 129.7 118.213 131.214C120.02 133.265 122.876 134.29 126.782 134.29H130.225V137H88.0371V134.29H91.5527C95.8008 134.29 98.7793 133.021 100.488 130.481C101.562 128.919 102.1 125.354 102.1 119.788V53.4307L63.7939 137H61.377ZM179.736 134.29V137H137.183V134.29H140.698C144.8 134.29 147.778 133.094 149.634 130.701C150.806 129.139 151.392 125.379 151.392 119.422V55.2617C151.392 50.2324 151.074 46.9121 150.439 45.3008C149.951 44.0801 148.95 43.0303 147.437 42.1514C145.288 40.9795 143.042 40.3936 140.698 40.3936H137.183V37.6836H179.736V40.3936H176.147C172.095 40.3936 169.141 41.5898 167.285 43.9824C166.064 45.5449 165.454 49.3047 165.454 55.2617V119.422C165.454 124.451 165.771 127.771 166.406 129.383C166.895 130.604 167.92 131.653 169.482 132.532C171.582 133.704 173.804 134.29 176.147 134.29H179.736ZM273.706 35.4131L275.977 69.1777H273.706C270.679 59.0703 266.357 51.7949 260.742 47.3516C255.127 42.9082 248.389 40.6865 240.527 40.6865C233.936 40.6865 227.979 42.3711 222.656 45.7402C217.334 49.0605 213.135 54.3828 210.059 61.707C207.031 69.0312 205.518 78.1377 205.518 89.0264C205.518 98.0107 206.958 105.799 209.839 112.391C212.72 118.982 217.041 124.036 222.803 127.552C228.613 131.067 235.229 132.825 242.651 132.825C249.097 132.825 254.785 131.458 259.717 128.724C264.648 125.94 270.068 120.447 275.977 112.244L278.247 113.709C273.267 122.547 267.456 129.017 260.815 133.118C254.175 137.22 246.289 139.271 237.158 139.271C220.703 139.271 207.959 133.167 198.926 120.96C192.188 111.878 188.818 101.185 188.818 88.8799C188.818 78.9678 191.04 69.8613 195.483 61.5605C199.927 53.2598 206.03 46.8389 213.794 42.2979C221.606 37.708 230.127 35.4131 239.355 35.4131C246.533 35.4131 253.613 37.1709 260.596 40.6865C262.646 41.7607 264.111 42.2979 264.99 42.2979C266.309 42.2979 267.456 41.834 268.433 40.9062C269.702 39.5879 270.605 37.7568 271.143 35.4131H273.706ZM384.814 137H358.301L324.683 90.5645C322.192 90.6621 320.166 90.7109 318.604 90.7109C317.969 90.7109 317.285 90.7109 316.553 90.7109C315.82 90.6621 315.063 90.6133 314.282 90.5645V119.422C314.282 125.672 314.966 129.554 316.333 131.067C318.188 133.216 320.972 134.29 324.683 134.29H328.564V137H286.011V134.29H289.746C293.945 134.29 296.948 132.923 298.755 130.188C299.78 128.675 300.293 125.086 300.293 119.422V55.2617C300.293 49.0117 299.609 45.1299 298.242 43.6162C296.338 41.4678 293.506 40.3936 289.746 40.3936H286.011V37.6836H322.192C332.739 37.6836 340.503 38.4648 345.483 40.0273C350.513 41.541 354.761 44.373 358.228 48.5234C361.743 52.625 363.501 57.5322 363.501 63.2451C363.501 69.3486 361.499 74.6465 357.495 79.1387C353.54 83.6309 347.388 86.8047 339.038 88.6602L359.546 117.151C364.233 123.694 368.262 128.04 371.631 130.188C375 132.337 379.395 133.704 384.814 134.29V137ZM314.282 85.9502C315.21 85.9502 316.016 85.9746 316.699 86.0234C317.383 86.0234 317.944 86.0234 318.384 86.0234C327.856 86.0234 334.985 83.9727 339.771 79.8711C344.604 75.7695 347.021 70.5449 347.021 64.1973C347.021 57.9961 345.068 52.9668 341.162 49.1094C337.305 45.2031 332.178 43.25 325.781 43.25C322.949 43.25 319.116 43.7139 314.282 44.6416V85.9502ZM581.982 109.534L584.399 110.047L575.903 137H498.999V134.29H502.734C506.934 134.29 509.937 132.923 511.743 130.188C512.769 128.626 513.281 125.013 513.281 119.349V55.2617C513.281 49.0605 512.598 45.1787 511.23 43.6162C509.326 41.4678 506.494 40.3936 502.734 40.3936H498.999V37.6836H543.97V40.3936C538.696 40.3447 534.985 40.833 532.837 41.8584C530.737 42.8838 529.297 44.1777 528.516 45.7402C527.734 47.3027 527.344 51.0381 527.344 56.9463V119.349C527.344 123.401 527.734 126.185 528.516 127.698C529.102 128.724 530.005 129.48 531.226 129.969C532.446 130.457 536.255 130.701 542.651 130.701H549.902C557.52 130.701 562.866 130.14 565.942 129.017C569.019 127.894 571.826 125.916 574.365 123.084C576.904 120.203 579.443 115.687 581.982 109.534ZM633.984 134.29V137H591.431V134.29H594.946C599.048 134.29 602.026 133.094 603.882 130.701C605.054 129.139 605.64 125.379 605.64 119.422V55.2617C605.64 50.2324 605.322 46.9121 604.688 45.3008C604.199 44.0801 603.198 43.0303 601.685 42.1514C599.536 40.9795 597.29 40.3936 594.946 40.3936H591.431V37.6836H633.984V40.3936H630.396C626.343 40.3936 623.389 41.5898 621.533 43.9824C620.312 45.5449 619.702 49.3047 619.702 55.2617V119.422C619.702 124.451 620.02 127.771 620.654 129.383C621.143 130.604 622.168 131.653 623.73 132.532C625.83 133.704 628.052 134.29 630.396 134.29H633.984ZM692.505 35.4131C705.396 35.4131 716.553 40.3203 725.977 50.1348C735.449 59.9004 740.186 72.1074 740.186 86.7559C740.186 101.844 735.425 114.368 725.903 124.329C716.382 134.29 704.858 139.271 691.333 139.271C677.661 139.271 666.162 134.412 656.836 124.695C647.559 114.979 642.92 102.405 642.92 86.9756C642.92 71.2041 648.291 58.3379 659.033 48.377C668.359 39.7344 679.517 35.4131 692.505 35.4131ZM691.113 40.7598C682.227 40.7598 675.098 44.0557 669.727 50.6475C663.037 58.8506 659.692 70.8623 659.692 86.6826C659.692 102.894 663.159 115.369 670.093 124.109C675.415 130.75 682.446 134.07 691.187 134.07C700.513 134.07 708.203 130.433 714.258 123.157C720.361 115.882 723.413 104.407 723.413 88.7334C723.413 71.7412 720.068 59.0703 713.379 50.7207C708.008 44.0801 700.586 40.7598 691.113 40.7598ZM744.067 37.6836H771.021L831.738 112.171V54.8955C831.738 48.792 831.055 44.9834 829.688 43.4697C827.881 41.4189 825.024 40.3936 821.118 40.3936H817.676V37.6836H852.246V40.3936H848.73C844.531 40.3936 841.553 41.6631 839.795 44.2021C838.721 45.7646 838.184 49.3291 838.184 54.8955V138.611H835.547L770.068 58.6309V119.788C770.068 125.892 770.728 129.7 772.046 131.214C773.901 133.265 776.758 134.29 780.615 134.29H784.131V137H749.561V134.29H753.003C757.251 134.29 760.254 133.021 762.012 130.481C763.086 128.919 763.623 125.354 763.623 119.788V50.7207C760.742 47.3516 758.545 45.1299 757.031 44.0557C755.566 42.9814 753.394 41.9805 750.513 41.0527C749.097 40.6133 746.948 40.3936 744.067 40.3936V37.6836Z" fill="#548DD4"/>
<path d="M437 139C463.15 139 484 115.515 484 87C484 58.4846 463.15 35 437 35C410.85 35 390 58.4846 390 87C390 115.515 410.85 139 437 139Z" fill="#BE0000" fill-opacity="0.84" stroke="#548DD4" stroke-width="4"/>
</svg>
