<?xml version="1.0" encoding="UTF-8" standalone="no" ?>
<!DOCTYPE svg PUBLIC "-//W3C//DTD SVG 1.1//EN" "http://www.w3.org/Graphics/SVG/1.1/DTD/svg11.dtd">
<svg xmlns="http://www.w3.org/2000/svg" xmlns:xlink="http://www.w3.org/1999/xlink" version="1.1" width="1080" height="200" viewBox="0 0 1080 200" xml:space="preserve">
<desc>Created with Fabric.js 5.2.4</desc>
<defs>
</defs>
<g transform="matrix(1 0 0 1 540 100)" id="32b53607-a280-447a-8754-fb7a518ddeff"  >
<rect style="stroke: none; stroke-width: 1; stroke-dasharray: none; stroke-linecap: butt; stroke-dashoffset: 0; stroke-linejoin: miter; stroke-miterlimit: 4; fill: rgb(255,255,255); fill-rule: nonzero; opacity: 1; visibility: hidden;" vector-effect="non-scaling-stroke"  x="-540" y="-100" rx="0" ry="0" width="1080" height="200" />
</g>
<g transform="matrix(Infinity NaN NaN Infinity 0 0)" id="47ef6dd0-10ff-46e7-8932-bf5ba42a87b8"  >
</g>
<g transform="matrix(1.13 0 0 1.13 540 100)"  >
<g style="" vector-effect="non-scaling-stroke"   >
		<g transform="matrix(1 0 0 1 0 0.34)"  >
<path style="stroke: none; stroke-width: 1; stroke-dasharray: none; stroke-linecap: butt; stroke-dashoffset: 0; stroke-linejoin: miter; stroke-miterlimit: 4; fill: rgb(84,141,212); fill-rule: nonzero; opacity: 1;" vector-effect="non-scaling-stroke"  transform=" translate(-427.37, -87.34)" d="M 61.377 137 L 22.998 53.4307 L 22.998 119.788 C 22.998 125.892 23.6572 129.7 24.9756 131.214 C 26.7822 133.265 29.6387 134.29 33.5449 134.29 L 37.0605 134.29 L 37.0605 137 L 2.49023 137 L 2.49023 134.29 L 6.00586 134.29 C 10.2051 134.29 13.1836 133.021 14.9414 130.481 C 16.0156 128.919 16.5527 125.354 16.5527 119.788 L 16.5527 54.8955 C 16.5527 50.501 16.0645 47.3271 15.0879 45.374 C 14.4043 43.958 13.1348 42.7861 11.2793 41.8584 C 9.47266 40.8818 6.54297 40.3936 2.49023 40.3936 L 2.49023 37.6836 L 30.6152 37.6836 L 66.6504 115.394 L 102.1 37.6836 L 130.225 37.6836 L 130.225 40.3936 L 126.782 40.3936 C 122.534 40.3936 119.531 41.6631 117.773 44.2021 C 116.699 45.7646 116.162 49.3291 116.162 54.8955 L 116.162 119.788 C 116.162 125.892 116.846 129.7 118.213 131.214 C 120.02 133.265 122.876 134.29 126.782 134.29 L 130.225 134.29 L 130.225 137 L 88.0371 137 L 88.0371 134.29 L 91.5527 134.29 C 95.8008 134.29 98.7793 133.021 100.488 130.481 C 101.562 128.919 102.1 125.354 102.1 119.788 L 102.1 53.4307 L 63.7939 137 L 61.377 137 Z M 179.736 134.29 L 179.736 137 L 137.183 137 L 137.183 134.29 L 140.698 134.29 C 144.8 134.29 147.778 133.094 149.634 130.701 C 150.806 129.139 151.392 125.379 151.392 119.422 L 151.392 55.2617 C 151.392 50.2324 151.074 46.9121 150.439 45.3008 C 149.951 44.0801 148.95 43.0303 147.437 42.1514 C 145.288 40.9795 143.042 40.3936 140.698 40.3936 L 137.183 40.3936 L 137.183 37.6836 L 179.736 37.6836 L 179.736 40.3936 L 176.147 40.3936 C 172.095 40.3936 169.141 41.5898 167.285 43.9824 C 166.064 45.5449 165.454 49.3047 165.454 55.2617 L 165.454 119.422 C 165.454 124.451 165.771 127.771 166.406 129.383 C 166.895 130.604 167.92 131.653 169.482 132.532 C 171.582 133.704 173.804 134.29 176.147 134.29 L 179.736 134.29 Z M 273.706 35.4131 L 275.977 69.1777 L 273.706 69.1777 C 270.679 59.0703 266.357 51.7949 260.742 47.3516 C 255.127 42.9082 248.389 40.6865 240.527 40.6865 C 233.936 40.6865 227.979 42.3711 222.656 45.7402 C 217.334 49.0605 213.135 54.3828 210.059 61.707 C 207.031 69.0312 205.518 78.1377 205.518 89.0264 C 205.518 98.0107 206.958 105.799 209.839 112.391 C 212.72 118.982 217.041 124.036 222.803 127.552 C 228.613 131.067 235.229 132.825 242.651 132.825 C 249.097 132.825 254.785 131.458 259.717 128.724 C 264.648 125.94 270.068 120.447 275.977 112.244 L 278.247 113.709 C 273.267 122.547 267.456 129.017 260.815 133.118 C 254.175 137.22 246.289 139.271 237.158 139.271 C 220.703 139.271 207.959 133.167 198.926 120.96 C 192.188 111.878 188.818 101.185 188.818 88.8799 C 188.818 78.9678 191.04 69.8613 195.483 61.5605 C 199.927 53.2598 206.03 46.8389 213.794 42.2979 C 221.606 37.708 230.127 35.4131 239.355 35.4131 C 246.533 35.4131 253.613 37.1709 260.596 40.6865 C 262.646 41.7607 264.111 42.2979 264.99 42.2979 C 266.309 42.2979 267.456 41.834 268.433 40.9062 C 269.702 39.5879 270.605 37.7568 271.143 35.4131 L 273.706 35.4131 Z M 384.814 137 L 358.301 137 L 324.683 90.5645 C 322.192 90.6621 320.166 90.7109 318.604 90.7109 C 317.969 90.7109 317.285 90.7109 316.553 90.7109 C 315.82 90.6621 315.063 90.6133 314.282 90.5645 L 314.282 119.422 C 314.282 125.672 314.966 129.554 316.333 131.067 C 318.188 133.216 320.972 134.29 324.683 134.29 L 328.564 134.29 L 328.564 137 L 286.011 137 L 286.011 134.29 L 289.746 134.29 C 293.945 134.29 296.948 132.923 298.755 130.188 C 299.78 128.675 300.293 125.086 300.293 119.422 L 300.293 55.2617 C 300.293 49.0117 299.609 45.1299 298.242 43.6162 C 296.338 41.4678 293.506 40.3936 289.746 40.3936 L 286.011 40.3936 L 286.011 37.6836 L 322.192 37.6836 C 332.739 37.6836 340.503 38.4648 345.483 40.0273 C 350.513 41.541 354.761 44.373 358.228 48.5234 C 361.743 52.625 363.501 57.5322 363.501 63.2451 C 363.501 69.3486 361.499 74.6465 357.495 79.1387 C 353.54 83.6309 347.388 86.8047 339.038 88.6602 L 359.546 117.151 C 364.233 123.694 368.262 128.04 371.631 130.188 C 375 132.337 379.395 133.704 384.814 134.29 L 384.814 137 Z M 314.282 85.9502 C 315.21 85.9502 316.016 85.9746 316.699 86.0234 C 317.383 86.0234 317.944 86.0234 318.384 86.0234 C 327.856 86.0234 334.985 83.9727 339.771 79.8711 C 344.604 75.7695 347.021 70.5449 347.021 64.1973 C 347.021 57.9961 345.068 52.9668 341.162 49.1094 C 337.305 45.2031 332.178 43.25 325.781 43.25 C 322.949 43.25 319.116 43.7139 314.282 44.6416 L 314.282 85.9502 Z M 581.982 109.534 L 584.399 110.047 L 575.903 137 L 498.999 137 L 498.999 134.29 L 502.734 134.29 C 506.934 134.29 509.937 132.923 511.743 130.188 C 512.769 128.626 513.281 125.013 513.281 119.349 L 513.281 55.2617 C 513.281 49.0605 512.598 45.1787 511.23 43.6162 C 509.326 41.4678 506.494 40.3936 502.734 40.3936 L 498.999 40.3936 L 498.999 37.6836 L 543.97 37.6836 L 543.97 40.3936 C 538.696 40.3447 534.985 40.833 532.837 41.8584 C 530.737 42.8838 529.297 44.1777 528.516 45.7402 C 527.734 47.3027 527.344 51.0381 527.344 56.9463 L 527.344 119.349 C 527.344 123.401 527.734 126.185 528.516 127.698 C 529.102 128.724 530.005 129.48 531.226 129.969 C 532.446 130.457 536.255 130.701 542.651 130.701 L 549.902 130.701 C 557.52 130.701 562.866 130.14 565.942 129.017 C 569.019 127.894 571.826 125.916 574.365 123.084 C 576.904 120.203 579.443 115.687 581.982 109.534 Z M 633.984 134.29 L 633.984 137 L 591.431 137 L 591.431 134.29 L 594.946 134.29 C 599.048 134.29 602.026 133.094 603.882 130.701 C 605.054 129.139 605.64 125.379 605.64 119.422 L 605.64 55.2617 C 605.64 50.2324 605.322 46.9121 604.688 45.3008 C 604.199 44.0801 603.198 43.0303 601.685 42.1514 C 599.536 40.9795 597.29 40.3936 594.946 40.3936 L 591.431 40.3936 L 591.431 37.6836 L 633.984 37.6836 L 633.984 40.3936 L 630.396 40.3936 C 626.343 40.3936 623.389 41.5898 621.533 43.9824 C 620.312 45.5449 619.702 49.3047 619.702 55.2617 L 619.702 119.422 C 619.702 124.451 620.02 127.771 620.654 129.383 C 621.143 130.604 622.168 131.653 623.73 132.532 C 625.83 133.704 628.052 134.29 630.396 134.29 L 633.984 134.29 Z M 692.505 35.4131 C 705.396 35.4131 716.553 40.3203 725.977 50.1348 C 735.449 59.9004 740.186 72.1074 740.186 86.7559 C 740.186 101.844 735.425 114.368 725.903 124.329 C 716.382 134.29 704.858 139.271 691.333 139.271 C 677.661 139.271 666.162 134.412 656.836 124.695 C 647.559 114.979 642.92 102.405 642.92 86.9756 C 642.92 71.2041 648.291 58.3379 659.033 48.377 C 668.359 39.7344 679.517 35.4131 692.505 35.4131 Z M 691.113 40.7598 C 682.227 40.7598 675.098 44.0557 669.727 50.6475 C 663.037 58.8506 659.692 70.8623 659.692 86.6826 C 659.692 102.894 663.159 115.369 670.093 124.109 C 675.415 130.75 682.446 134.07 691.187 134.07 C 700.513 134.07 708.203 130.433 714.258 123.157 C 720.361 115.882 723.413 104.407 723.413 88.7334 C 723.413 71.7412 720.068 59.0703 713.379 50.7207 C 708.008 44.0801 700.586 40.7598 691.113 40.7598 Z M 744.067 37.6836 L 771.021 37.6836 L 831.738 112.171 L 831.738 54.8955 C 831.738 48.792 831.055 44.9834 829.688 43.4697 C 827.881 41.4189 825.024 40.3936 821.118 40.3936 L 817.676 40.3936 L 817.676 37.6836 L 852.246 37.6836 L 852.246 40.3936 L 848.73 40.3936 C 844.531 40.3936 841.553 41.6631 839.795 44.2021 C 838.721 45.7646 838.184 49.3291 838.184 54.8955 L 838.184 138.611 L 835.547 138.611 L 770.068 58.6309 L 770.068 119.788 C 770.068 125.892 770.728 129.7 772.046 131.214 C 773.901 133.265 776.758 134.29 780.615 134.29 L 784.131 134.29 L 784.131 137 L 749.561 137 L 749.561 134.29 L 753.003 134.29 C 757.251 134.29 760.254 133.021 762.012 130.481 C 763.086 128.919 763.623 125.354 763.623 119.788 L 763.623 50.7207 C 760.742 47.3516 758.545 45.1299 757.031 44.0557 C 755.566 42.9814 753.394 41.9805 750.513 41.0527 C 749.097 40.6133 746.948 40.3936 744.067 40.3936 L 744.067 37.6836 Z" stroke-linecap="round" />
</g>
		<g transform="matrix(1 0 0 1 9.63 0)"  >
<path style="stroke: rgb(84,141,212); stroke-width: 4; stroke-dasharray: none; stroke-linecap: butt; stroke-dashoffset: 0; stroke-linejoin: miter; stroke-miterlimit: 4; fill: rgb(190,0,0); fill-opacity: 0.84; fill-rule: nonzero; opacity: 1;" vector-effect="non-scaling-stroke"  transform=" translate(-437, -87)" d="M 437 139 C 463.15 139 484 115.515 484 87 C 484 58.4846 463.15 35 437 35 C 410.85 35 390 58.4846 390 87 C 390 115.515 410.85 139 437 139 Z" stroke-linecap="round" />
</g>
</g>
</g>
</svg>